<svg width="512" height="512" version="1.1" xmlns="http://www.w3.org/2000/svg" desc="Created with imagetracer.js version 1.2.6" ><path fill="rgb(183,136,36)" stroke="rgb(183,136,36)" stroke-width="1" opacity="0.9921568627450981" d="M 340 45 Q 343.6 47.3 352.5 46 L 354 47.5 L 363 72.5 L 368 101.5 L 367 104.5 L 368 105.5 L 368 134.5 L 367 137.5 L 367 139.5 Q 368.2 144.3 366 145.5 L 367 147.5 L 361 174.5 L 352 198.5 Q 339.2 224.2 318.5 242 L 315.5 244 L 288 263.5 L 288 265.5 L 291 295.5 L 293 303.5 Q 298.6 324.1 308 340 L 310 340.5 L 309 341.5 L 310.5 344 L 292.5 344 L 292 342.5 L 283 324.5 L 275 297.5 L 274 285.5 L 273 284.5 L 273 275.5 L 272 274.5 L 272 259.5 Q 273.8 252.3 279.5 249 Q 304 235.5 322 215.5 Q 331.8 204.2 338 189.5 L 347 163.5 L 351 142.5 L 351 133.5 L 352 132.5 L 352 107.5 L 351 106.5 L 351 97.5 L 348 80.5 L 339 53.5 L 339 47.5 L 340 45 Z " /><path fill="rgb(183,136,36)" stroke="rgb(183,136,36)" stroke-width="1" opacity="0.9921568627450981" d="M 248.5 80 L 263.5 80 L 283.5 85 Q 301.6 92.9 313 107.5 Q 321.6 118.4 326 133.5 L 328 144.5 L 328 159.5 L 326 170.5 L 319 187.5 Q 311.8 200.3 300.5 209 Q 289.6 217.6 274.5 222 L 263.5 224 L 248.5 224 L 237.5 222 L 220.5 215 Q 207.8 207.8 199 196.5 Q 190.4 185.6 186 170.5 L 184 159.5 L 184 144.5 L 186 133.5 L 193 116.5 Q 200.3 103.8 211.5 95 L 228.5 85 L 248.5 80 Z M 256 112 L 235 122 L 231 126 L 235 136 L 239 138 L 247 134 L 249 135 L 249 191 Q 253 193 263 192 L 265 189 L 265 120 L 264 117 Q 262 112 256 112 Z " /><path fill="rgb(183,136,36)" stroke="rgb(183,136,36)" stroke-width="1" opacity="0.9921568627450981" d="M 323.5 346 L 324.5 348 L 323.5 346 Z " /><path fill="rgb(183,136,36)" stroke="rgb(183,136,36)" stroke-width="1" opacity="0.9921568627450981" d="M 326.5 348 L 331.5 354 L 326.5 348 Z " /><path fill="rgb(183,136,36)" stroke="rgb(183,136,36)" stroke-width="1" opacity="0.9921568627450981" d="M 183.5 350 L 182.5 352 L 183.5 350 Z " /><path fill="rgb(183,136,36)" stroke="rgb(183,136,36)" stroke-width="1" opacity="0.9921568627450981" d="M 332.5 355 L 335 359.5 L 334 359.5 L 332.5 355 Z " /><path fill="rgb(183,136,36)" stroke="rgb(183,136,36)" stroke-width="1" opacity="0.9921568627450981" d="M 169.5 380 L 167.5 383 L 169.5 380 Z " /><path fill="rgb(183,136,36)" stroke="rgb(183,136,36)" stroke-width="1" opacity="0.9921568627450981" d="M 342.5 380 L 343.5 382 L 342.5 380 Z " /><path fill="rgb(183,136,36)" stroke="rgb(183,136,36)" stroke-width="1" opacity="0.9921568627450981" d="M 165.5 384 L 164.5 386 L 165.5 384 Z " /><path fill="rgb(183,136,36)" stroke="rgb(183,136,36)" stroke-width="1" opacity="0.9921568627450981" d="M 346.5 384 L 347.5 386 L 346.5 384 Z " /><path fill="rgb(183,136,36)" stroke="rgb(183,136,36)" stroke-width="1" opacity="0.9921568627450981" d="M 163.5 485 L 164.5 487 L 163.5 485 Z " /><path fill="rgb(183,136,36)" stroke="rgb(183,136,36)" stroke-width="1" opacity="0.9921568627450981" d="M 348.5 485 L 347.5 487 L 348.5 485 Z " /><path fill="rgb(183,136,36)" stroke="rgb(183,136,36)" stroke-width="1" opacity="0.9921568627450981" d="M 169.5 491 L 170.5 493 L 169.5 491 Z " /><path fill="rgb(183,136,36)" stroke="rgb(183,136,36)" stroke-width="1" opacity="0.9921568627450981" d="M 342.5 491 L 341.5 493 L 342.5 491 Z " /><path fill="rgb(253,207,47)" stroke="rgb(253,207,47)" stroke-width="1" opacity="0.9176470588235294" d="M 170.5 45 L 311.5 45 L 312 47.5 Q 310.6 55.6 304.5 59 L 300.5 61 L 170.5 61 L 169 62.5 L 164 79.5 L 161 95.5 L 161 102.5 L 160 103.5 L 160 135.5 L 165 164.5 L 175 192.5 Q 186.2 215.8 205.5 231 L 237 253.5 Q 241.8 259.7 240 272.5 L 239 273.5 L 238 291.5 L 235 305.5 Q 229.3 326.9 220 344 L 201 343.5 Q 211.8 326.8 218 305.5 L 223 280.5 L 223 263.5 L 220 262 L 218.5 259 Q 217 261.5 215.5 258 L 190 239.5 L 191 238.5 L 186.5 234 L 183 231.5 Q 169.9 217.6 161 199.5 L 156 194.5 L 158 194.5 L 150 171.5 L 145 147.5 Q 146.8 141.3 144 139.5 L 144 100.5 L 145 99.5 L 145 92.5 L 148 76.5 L 155 53 Q 158 54.3 157 50.5 L 159.5 46 L 169.5 46 L 170.5 45 Z " /><path fill="rgb(253,207,47)" stroke="rgb(253,207,47)" stroke-width="1" opacity="0.9176470588235294" d="M 112.5 85 L 113 89.5 L 112 89.5 L 112.5 85 Z " /><path fill="rgb(253,207,47)" stroke="rgb(253,207,47)" stroke-width="1" opacity="0.9176470588235294" d="M 399.5 86 L 400 89.5 L 399 89.5 L 399.5 86 Z " /><path fill="rgb(253,207,47)" stroke="rgb(253,207,47)" stroke-width="1" opacity="0.9176470588235294" d="M 145.5 182 L 146.5 184 L 145.5 182 Z " /><path fill="rgb(253,207,47)" stroke="rgb(253,207,47)" stroke-width="1" opacity="0.9176470588235294" d="M 366.5 182 L 365.5 184 L 366.5 182 Z " /><path fill="rgb(253,207,47)" stroke="rgb(253,207,47)" stroke-width="1" opacity="0.9176470588235294" d="M 152.5 190 L 154.5 193 L 152.5 190 Z " /><path fill="rgb(253,207,47)" stroke="rgb(253,207,47)" stroke-width="1" opacity="0.9176470588235294" d="M 359.5 190 L 352.5 198 L 359.5 190 Z " /><path fill="rgb(253,207,47)" stroke="rgb(253,207,47)" stroke-width="1" opacity="0.9176470588235294" d="M 137.5 199 L 139.5 202 L 137.5 199 Z " /><path fill="rgb(253,207,47)" stroke="rgb(253,207,47)" stroke-width="1" opacity="0.9176470588235294" d="M 374.5 199 L 371.5 203 L 374.5 199 Z " /><path fill="rgb(253,207,47)" stroke="rgb(253,207,47)" stroke-width="1" opacity="0.9176470588235294" d="M 149.5 211 L 152.5 215 L 149.5 211 Z " /><path fill="rgb(253,207,47)" stroke="rgb(253,207,47)" stroke-width="1" opacity="0.9176470588235294" d="M 361.5 212 L 359.5 215 L 361.5 212 Z " /><path fill="rgb(253,207,47)" stroke="rgb(253,207,47)" stroke-width="1" opacity="0.9176470588235294" d="M 157.5 218 L 158.5 220 L 157.5 218 Z " /><path fill="rgb(0,0,0)" stroke="rgb(0,0,0)" stroke-width="1" opacity="0" d="M 0 0 L 512 0 L 512 512 L 0 512 L 0 0 Z M 114 16 L 109 21 L 103 37 L 96 70 L 96 107 L 103 140 Q 115 175 137 200 Q 150 214 167 226 L 192 240 L 223 264 L 223 281 L 218 306 Q 212 327 201 344 Q 192 343 187 347 Q 173 354 176 377 L 171 379 Q 163 384 160 394 L 160 479 L 163 486 Q 168 493 178 496 L 335 496 L 342 493 Q 349 488 352 479 L 352 394 L 349 387 Q 344 379 336 377 L 336 362 L 333 355 Q 329 348 322 345 L 311 344 Q 300 327 294 306 L 289 279 L 289 264 L 321 240 Q 343 230 360 215 Q 381 197 395 172 L 409 140 L 416 107 L 416 70 L 415 69 L 414 57 L 407 31 L 403 21 L 399 16 L 354 16 L 352 17 L 349 20 Q 347 33 342 44 L 342 45 L 170 45 Q 165 34 163 20 L 159 16 L 114 16 Z " /><path fill="rgb(0,0,0)" stroke="rgb(0,0,0)" stroke-width="1" opacity="0" d="M 123 32 L 147.5 32 L 149 33.5 L 155 55.5 L 150 68.5 L 145 92.5 Q 146.8 98.7 144 100.5 L 144 139.5 L 150 171.5 L 159 195.5 L 156.5 194 Q 154.3 194.8 155 192.5 Q 133.5 172 122 141.5 L 116 121.5 L 113 104.5 L 113 71.5 L 114 70.5 L 116 53.5 L 123 32 Z " /><path fill="rgb(0,0,0)" stroke="rgb(0,0,0)" stroke-width="1" opacity="0" d="M 364.5 32 L 388.5 32 L 389 33.5 L 394 46.5 L 399 71.5 L 399 104.5 L 394 129.5 L 388 146.5 Q 375.6 176.1 353.5 196 L 354 194.5 L 362 171.5 L 367 147.5 Q 365.2 141.3 368 139.5 L 368 100.5 L 367 99.5 L 367 92.5 L 364 76.5 L 357 52.5 L 364.5 32 Z " /><path fill="rgb(246,182,48)" stroke="rgb(246,182,48)" stroke-width="1" opacity="0.9921568627450981" d="M 113.5 16 L 112.5 18 L 113.5 16 Z " /><path fill="rgb(246,182,48)" stroke="rgb(246,182,48)" stroke-width="1" opacity="0.9921568627450981" d="M 160.5 17 L 161.5 19 L 160.5 17 Z " /><path fill="rgb(246,182,48)" stroke="rgb(246,182,48)" stroke-width="1" opacity="0.9921568627450981" d="M 351.5 17 L 352 19 L 350 18.5 L 351.5 17 Z " /><path fill="rgb(246,182,48)" stroke="rgb(246,182,48)" stroke-width="1" opacity="0.9921568627450981" d="M 400.5 18 L 401.5 20 L 400.5 18 Z " /><path fill="rgb(246,182,48)" stroke="rgb(246,182,48)" stroke-width="1" opacity="0.9921568627450981" d="M 163.5 22 L 164 24.5 L 163 24.5 L 163.5 22 Z " /><path fill="rgb(246,182,48)" stroke="rgb(246,182,48)" stroke-width="1" opacity="0.9921568627450981" d="M 107.5 26 L 108 27.5 L 106.5 30 L 106 28.5 L 107.5 26 Z " /><path fill="rgb(246,182,48)" stroke="rgb(246,182,48)" stroke-width="1" opacity="0.9921568627450981" d="M 164.5 27 L 165 29.5 L 164 29.5 L 164.5 27 Z " /><path fill="rgb(246,182,48)" stroke="rgb(246,182,48)" stroke-width="1" opacity="0.9921568627450981" d="M 389.5 33 L 391 35.5 L 390 35.5 L 389.5 33 Z " /><path fill="rgb(246,182,48)" stroke="rgb(246,182,48)" stroke-width="1" opacity="0.9921568627450981" d="M 104.5 34 L 105 36.5 L 104 36.5 L 104.5 34 Z " /><path fill="rgb(246,182,48)" stroke="rgb(246,182,48)" stroke-width="1" opacity="0.9921568627450981" d="M 391.5 37 L 393 41.5 L 392 41.5 L 391.5 37 Z " /><path fill="rgb(246,182,48)" stroke="rgb(246,182,48)" stroke-width="1" opacity="0.9921568627450981" d="M 342.5 43 L 343 45 L 352.5 45 L 354 46.5 L 352.5 46 L 342.5 46 L 342.5 43 Z " /><path fill="rgb(246,182,48)" stroke="rgb(246,182,48)" stroke-width="1" opacity="0.9921568627450981" d="M 152.5 44 L 154 46.5 L 152 45.5 L 152.5 44 Z " /><path fill="rgb(246,182,48)" stroke="rgb(246,182,48)" stroke-width="1" opacity="0.9921568627450981" d="M 410.5 44 L 412 47.5 L 410 46.5 L 410.5 44 Z " /><path fill="rgb(246,182,48)" stroke="rgb(246,182,48)" stroke-width="1" opacity="0.9921568627450981" d="M 100.5 47 L 101 49.5 L 100 49.5 L 100.5 47 Z " /><path fill="rgb(246,182,48)" stroke="rgb(246,182,48)" stroke-width="1" opacity="0.9921568627450981" d="M 357.5 50 L 358 51.5 L 356.5 54 L 355 51.5 L 357 51.5 L 357.5 50 Z " /><path fill="rgb(246,182,48)" stroke="rgb(246,182,48)" stroke-width="1" opacity="0.9921568627450981" d="M 115.5 54 L 116 57.5 L 115 57.5 L 115.5 54 Z " /><path fill="rgb(246,182,48)" stroke="rgb(246,182,48)" stroke-width="1" opacity="0.9921568627450981" d="M 98.5 57 L 99 59.5 L 98 59.5 L 98.5 57 Z " /><path fill="rgb(246,182,48)" stroke="rgb(246,182,48)" stroke-width="1" opacity="0.9921568627450981" d="M 413.5 57 L 414 59.5 L 413 59.5 L 413.5 57 Z " /><path fill="rgb(246,182,48)" stroke="rgb(246,182,48)" stroke-width="1" opacity="0.9921568627450981" d="M 414.5 62 L 415 66.5 L 414 66.5 L 414.5 62 Z " /><path fill="rgb(246,182,48)" stroke="rgb(246,182,48)" stroke-width="1" opacity="0.9921568627450981" d="M 97.5 63 L 98 67.5 L 97 67.5 L 97.5 63 Z " /><path fill="rgb(246,182,48)" stroke="rgb(246,182,48)" stroke-width="1" opacity="0.9921568627450981" d="M 113.5 67 L 114 69.5 L 113 69.5 L 113.5 67 Z " /><path fill="rgb(246,182,48)" stroke="rgb(246,182,48)" stroke-width="1" opacity="0.9921568627450981" d="M 96.5 70 L 97 74.5 L 96 74.5 L 96.5 70 Z " /><path fill="rgb(246,182,48)" stroke="rgb(246,182,48)" stroke-width="1" opacity="0.9921568627450981" d="M 112.5 73 L 113 76.5 L 112 76.5 L 112.5 73 Z " /><path fill="rgb(246,182,48)" stroke="rgb(246,182,48)" stroke-width="1" opacity="0.9921568627450981" d="M 399.5 78 L 400 80.5 L 399 80.5 L 399.5 78 Z " /><path fill="rgb(246,182,48)" stroke="rgb(246,182,48)" stroke-width="1" opacity="0.9921568627450981" d="M 244.5 80 L 248 80.5 L 244.5 81 L 244.5 80 Z " /><path fill="rgb(246,182,48)" stroke="rgb(246,182,48)" stroke-width="1" opacity="0.9921568627450981" d="M 264.5 80 L 268 80.5 L 264.5 81 L 264.5 80 Z " /><path fill="rgb(246,182,48)" stroke="rgb(246,182,48)" stroke-width="1" opacity="0.9921568627450981" d="M 347.5 80 L 348 82.5 L 347 82.5 L 347.5 80 Z " /><path fill="rgb(246,182,48)" stroke="rgb(246,182,48)" stroke-width="1" opacity="0.9921568627450981" d="M 112.5 81 L 113 84.5 L 112 84.5 L 112.5 81 Z " /><path fill="rgb(246,182,48)" stroke="rgb(246,182,48)" stroke-width="1" opacity="0.9921568627450981" d="M 399.5 82 L 400 85.5 L 399 85.5 L 399.5 82 Z " /><path fill="rgb(246,182,48)" stroke="rgb(246,182,48)" stroke-width="1" opacity="0.9921568627450981" d="M 219.5 89 L 218.5 91 L 219.5 89 Z " /><path fill="rgb(246,182,48)" stroke="rgb(246,182,48)" stroke-width="1" opacity="0.9921568627450981" d="M 292.5 89 L 293.5 91 L 292.5 89 Z " /><path fill="rgb(246,182,48)" stroke="rgb(246,182,48)" stroke-width="1" opacity="0.9921568627450981" d="M 112.5 90 L 113 93.5 L 112 93.5 L 112.5 90 Z " /><path fill="rgb(246,182,48)" stroke="rgb(246,182,48)" stroke-width="1" opacity="0.9921568627450981" d="M 399.5 90 L 400 92.5 L 399 92.5 L 399.5 90 Z " /><path fill="rgb(246,182,48)" stroke="rgb(246,182,48)" stroke-width="1" opacity="0.9921568627450981" d="M 349.5 91 L 350 93.5 L 349 93.5 L 349.5 91 Z " /><path fill="rgb(246,182,48)" stroke="rgb(246,182,48)" stroke-width="1" opacity="0.9921568627450981" d="M 213.5 93 L 212.5 95 L 213.5 93 Z " /><path fill="rgb(246,182,48)" stroke="rgb(246,182,48)" stroke-width="1" opacity="0.9921568627450981" d="M 298.5 93 L 299.5 95 L 298.5 93 Z " /><path fill="rgb(246,182,48)" stroke="rgb(246,182,48)" stroke-width="1" opacity="0.9921568627450981" d="M 399.5 95 L 400 101.5 L 399 101.5 L 399.5 95 Z " /><path fill="rgb(246,182,48)" stroke="rgb(246,182,48)" stroke-width="1" opacity="0.9921568627450981" d="M 209.5 96 L 200.5 106 L 209.5 96 Z " /><path fill="rgb(246,182,48)" stroke="rgb(246,182,48)" stroke-width="1" opacity="0.9921568627450981" d="M 302.5 96 L 311.5 106 L 302.5 96 Z " /><path fill="rgb(246,182,48)" stroke="rgb(246,182,48)" stroke-width="1" opacity="0.9921568627450981" d="M 350.5 97 L 351 100.5 L 350 100.5 L 350.5 97 Z " /><path fill="rgb(246,182,48)" stroke="rgb(246,182,48)" stroke-width="1" opacity="0.9921568627450981" d="M 96.5 99 L 97 102.5 L 96 102.5 L 96.5 99 Z " /><path fill="rgb(246,182,48)" stroke="rgb(246,182,48)" stroke-width="1" opacity="0.9921568627450981" d="M 415.5 101 L 416 105.5 L 415 105.5 L 415.5 101 Z " /><path fill="rgb(246,182,48)" stroke="rgb(246,182,48)" stroke-width="1" opacity="0.9921568627450981" d="M 367.5 102 L 368 104.5 L 367 104.5 L 367.5 102 Z " /><path fill="rgb(246,182,48)" stroke="rgb(246,182,48)" stroke-width="1" opacity="0.9921568627450981" d="M 113.5 106 L 114 109.5 L 113 109.5 L 113.5 106 Z " /><path fill="rgb(246,182,48)" stroke="rgb(246,182,48)" stroke-width="1" opacity="0.9921568627450981" d="M 351.5 107 L 352 118.5 L 351 118.5 L 351.5 107 Z " /><path fill="rgb(246,182,48)" stroke="rgb(246,182,48)" stroke-width="1" opacity="0.9921568627450981" d="M 398.5 107 L 399 109.5 L 398 109.5 L 398.5 107 Z " /><path fill="rgb(246,182,48)" stroke="rgb(246,182,48)" stroke-width="1" opacity="0.9921568627450981" d="M 198.5 108 L 197.5 110 L 198.5 108 Z " /><path fill="rgb(246,182,48)" stroke="rgb(246,182,48)" stroke-width="1" opacity="0.9921568627450981" d="M 313.5 108 L 314.5 110 L 313.5 108 Z " /><path fill="rgb(246,182,48)" stroke="rgb(246,182,48)" stroke-width="1" opacity="0.9921568627450981" d="M 414.5 109 L 415 112.5 L 414 112.5 L 414.5 109 Z " /><path fill="rgb(246,182,48)" stroke="rgb(246,182,48)" stroke-width="1" opacity="0.9921568627450981" d="M 97.5 110 L 98 112.5 L 97 112.5 L 97.5 110 Z " /><path fill="rgb(246,182,48)" stroke="rgb(246,182,48)" stroke-width="1" opacity="0.9921568627450981" d="M 255.5 112 L 259 112.5 L 255.5 113 L 255.5 112 Z " /><path fill="rgb(246,182,48)" stroke="rgb(246,182,48)" stroke-width="1" opacity="0.9921568627450981" d="M 260.5 113 L 261.5 115 L 260.5 113 Z " /><path fill="rgb(246,182,48)" stroke="rgb(246,182,48)" stroke-width="1" opacity="0.9921568627450981" d="M 194.5 114 L 193.5 116 L 194.5 114 Z " /><path fill="rgb(246,182,48)" stroke="rgb(246,182,48)" stroke-width="1" opacity="0.9921568627450981" d="M 317.5 114 L 318.5 116 L 317.5 114 Z " /><path fill="rgb(246,182,48)" stroke="rgb(246,182,48)" stroke-width="1" opacity="0.9921568627450981" d="M 98.5 116 L 99 118.5 L 98 118.5 L 98.5 116 Z " /><path fill="rgb(246,182,48)" stroke="rgb(246,182,48)" stroke-width="1" opacity="0.9921568627450981" d="M 397.5 117 L 397 118.5 L 396.5 121 L 396 118.5 L 397.5 117 Z " /><path fill="rgb(246,182,48)" stroke="rgb(246,182,48)" stroke-width="1" opacity="0.9921568627450981" d="M 264.5 119 L 265 188.5 L 264 188.5 L 264.5 119 Z " /><path fill="rgb(246,182,48)" stroke="rgb(246,182,48)" stroke-width="1" opacity="0.9921568627450981" d="M 115.5 121 L 117 124.5 L 116 124.5 L 115.5 121 Z " /><path fill="rgb(246,182,48)" stroke="rgb(246,182,48)" stroke-width="1" opacity="0.9921568627450981" d="M 351.5 121 L 352 132.5 L 351 132.5 L 351.5 121 Z " /><path fill="rgb(246,182,48)" stroke="rgb(246,182,48)" stroke-width="1" opacity="0.9921568627450981" d="M 396.5 122 L 395.5 124 L 396.5 122 Z " /><path fill="rgb(246,182,48)" stroke="rgb(246,182,48)" stroke-width="1" opacity="0.9921568627450981" d="M 231.5 125 L 232 127.5 L 231 127.5 L 231.5 125 Z " /><path fill="rgb(246,182,48)" stroke="rgb(246,182,48)" stroke-width="1" opacity="0.9921568627450981" d="M 117.5 129 L 119 131.5 L 118 131.5 L 117.5 129 Z " /><path fill="rgb(246,182,48)" stroke="rgb(246,182,48)" stroke-width="1" opacity="0.9921568627450981" d="M 102.5 133 L 103 135.5 L 102 135.5 L 102.5 133 Z " /><path fill="rgb(246,182,48)" stroke="rgb(246,182,48)" stroke-width="1" opacity="0.9921568627450981" d="M 235.5 135 L 236.5 137 L 235.5 135 Z " /><path fill="rgb(246,182,48)" stroke="rgb(246,182,48)" stroke-width="1" opacity="0.9921568627450981" d="M 367.5 135 L 368 137.5 L 367 137.5 L 367.5 135 Z " /><path fill="rgb(246,182,48)" stroke="rgb(246,182,48)" stroke-width="1" opacity="0.9921568627450981" d="M 409.5 135 L 409 136.5 L 408.5 139 L 408 136.5 L 409.5 135 Z " /><path fill="rgb(246,182,48)" stroke="rgb(246,182,48)" stroke-width="1" opacity="0.9921568627450981" d="M 350.5 139 L 351 142.5 L 350 142.5 L 350.5 139 Z " /><path fill="rgb(246,182,48)" stroke="rgb(246,182,48)" stroke-width="1" opacity="0.9921568627450981" d="M 184.5 140 L 185 143.5 L 184 143.5 L 184.5 140 Z " /><path fill="rgb(246,182,48)" stroke="rgb(246,182,48)" stroke-width="1" opacity="0.9921568627450981" d="M 327.5 140 L 328 143.5 L 327 143.5 L 327.5 140 Z " /><path fill="rgb(246,182,48)" stroke="rgb(246,182,48)" stroke-width="1" opacity="0.9921568627450981" d="M 105.5 144 L 107 147.5 L 106 147.5 L 105.5 144 Z " /><path fill="rgb(246,182,48)" stroke="rgb(246,182,48)" stroke-width="1" opacity="0.9921568627450981" d="M 123.5 146 L 124.5 148 L 123.5 146 Z " /><path fill="rgb(246,182,48)" stroke="rgb(246,182,48)" stroke-width="1" opacity="0.9921568627450981" d="M 349.5 146 L 350 149.5 L 349 149.5 L 349.5 146 Z " /><path fill="rgb(246,182,48)" stroke="rgb(246,182,48)" stroke-width="1" opacity="0.9921568627450981" d="M 404.5 149 L 403.5 151 L 404.5 149 Z " /><path fill="rgb(246,182,48)" stroke="rgb(246,182,48)" stroke-width="1" opacity="0.9921568627450981" d="M 126.5 153 L 127.5 155 L 126.5 153 Z " /><path fill="rgb(246,182,48)" stroke="rgb(246,182,48)" stroke-width="1" opacity="0.9921568627450981" d="M 128.5 156 L 130 158.5 L 128 157.5 L 128.5 156 Z " /><path fill="rgb(246,182,48)" stroke="rgb(246,182,48)" stroke-width="1" opacity="0.9921568627450981" d="M 400.5 159 L 400 160.5 L 398.5 163 L 399 161.5 L 400.5 159 Z " /><path fill="rgb(246,182,48)" stroke="rgb(246,182,48)" stroke-width="1" opacity="0.9921568627450981" d="M 112.5 160 L 114 163.5 L 113 163.5 L 112.5 160 Z " /><path fill="rgb(246,182,48)" stroke="rgb(246,182,48)" stroke-width="1" opacity="0.9921568627450981" d="M 184.5 160 L 185 163.5 L 184 163.5 L 184.5 160 Z " /><path fill="rgb(246,182,48)" stroke="rgb(246,182,48)" stroke-width="1" opacity="0.9921568627450981" d="M 327.5 160 L 328 162.5 L 327 162.5 L 327.5 160 Z " /><path fill="rgb(246,182,48)" stroke="rgb(246,182,48)" stroke-width="1" opacity="0.9921568627450981" d="M 346.5 161 L 347 163.5 L 346 163.5 L 346.5 161 Z " /><path fill="rgb(246,182,48)" stroke="rgb(246,182,48)" stroke-width="1" opacity="0.9921568627450981" d="M 114.5 165 L 116 167.5 L 115 167.5 L 114.5 165 Z " /><path fill="rgb(246,182,48)" stroke="rgb(246,182,48)" stroke-width="1" opacity="0.9921568627450981" d="M 377.5 167 L 376.5 169 L 377.5 167 Z " /><path fill="rgb(246,182,48)" stroke="rgb(246,182,48)" stroke-width="1" opacity="0.9921568627450981" d="M 137.5 171 L 140 174.5 L 137 172.5 L 137.5 171 Z " /><path fill="rgb(246,182,48)" stroke="rgb(246,182,48)" stroke-width="1" opacity="0.9921568627450981" d="M 374 171 L 376 171.5 L 369.5 179 L 372 175.5 L 374 171 Z " /><path fill="rgb(246,182,48)" stroke="rgb(246,182,48)" stroke-width="1" opacity="0.9921568627450981" d="M 118.5 172 L 121 175.5 L 119 174.5 L 118.5 172 Z " /><path fill="rgb(246,182,48)" stroke="rgb(246,182,48)" stroke-width="1" opacity="0.9921568627450981" d="M 392.5 174 L 391.5 176 L 392.5 174 Z " /><path fill="rgb(246,182,48)" stroke="rgb(246,182,48)" stroke-width="1" opacity="0.9921568627450981" d="M 140.5 176 L 142.5 179 Q 140.3 179.8 141 177.5 L 140.5 176 Z " /><path fill="rgb(246,182,48)" stroke="rgb(246,182,48)" stroke-width="1" opacity="0.9921568627450981" d="M 121.5 177 L 123.5 180 L 121.5 177 Z " /><path fill="rgb(246,182,48)" stroke="rgb(246,182,48)" stroke-width="1" opacity="0.9921568627450981" d="M 390.5 177 L 388.5 180 L 390.5 177 Z " /><path fill="rgb(246,182,48)" stroke="rgb(246,182,48)" stroke-width="1" opacity="0.9921568627450981" d="M 387.5 181 L 387 182.5 L 386.5 184 L 386 182.5 L 387.5 181 Z " /><path fill="rgb(246,182,48)" stroke="rgb(246,182,48)" stroke-width="1" opacity="0.9921568627450981" d="M 125.5 183 L 126.5 185 L 125.5 183 Z " /><path fill="rgb(246,182,48)" stroke="rgb(246,182,48)" stroke-width="1" opacity="0.9921568627450981" d="M 146.5 184 L 149 187.5 L 148 187.5 L 146.5 184 Z " /><path fill="rgb(246,182,48)" stroke="rgb(246,182,48)" stroke-width="1" opacity="0.9921568627450981" d="M 362.5 187 L 360.5 190 L 362.5 187 Z " /><path fill="rgb(246,182,48)" stroke="rgb(246,182,48)" stroke-width="1" opacity="0.9921568627450981" d="M 193.5 188 L 194.5 190 L 193.5 188 Z " /><path fill="rgb(246,182,48)" stroke="rgb(246,182,48)" stroke-width="1" opacity="0.9921568627450981" d="M 318.5 188 L 317.5 190 L 318.5 188 Z " /><path fill="rgb(246,182,48)" stroke="rgb(246,182,48)" stroke-width="1" opacity="0.9921568627450981" d="M 131.5 190 L 133 192.5 L 131 191.5 L 131.5 190 Z " /><path fill="rgb(246,182,48)" stroke="rgb(246,182,48)" stroke-width="1" opacity="0.9921568627450981" d="M 263.5 190 L 262.5 192 L 263.5 190 Z " /><path fill="rgb(246,182,48)" stroke="rgb(246,182,48)" stroke-width="1" opacity="0.9921568627450981" d="M 381.5 190 L 380.5 192 L 381.5 190 Z " /><path fill="rgb(246,182,48)" stroke="rgb(246,182,48)" stroke-width="1" opacity="0.9921568627450981" d="M 153.5 192 L 155.5 195 L 153.5 192 Z " /><path fill="rgb(246,182,48)" stroke="rgb(246,182,48)" stroke-width="1" opacity="0.9921568627450981" d="M 358.5 192 L 354.5 197 L 358.5 192 Z " /><path fill="rgb(246,182,48)" stroke="rgb(246,182,48)" stroke-width="1" opacity="0.9921568627450981" d="M 133.5 194 L 136 195.5 L 134.5 196 L 133.5 194 Z " /><path fill="rgb(246,182,48)" stroke="rgb(246,182,48)" stroke-width="1" opacity="0.9921568627450981" d="M 197.5 194 L 198.5 196 L 197.5 194 Z " /><path fill="rgb(246,182,48)" stroke="rgb(246,182,48)" stroke-width="1" opacity="0.9921568627450981" d="M 314.5 194 L 313.5 196 L 314.5 194 Z " /><path fill="rgb(246,182,48)" stroke="rgb(246,182,48)" stroke-width="1" opacity="0.9921568627450981" d="M 376.5 196 L 374.5 199 L 376.5 196 Z " /><path fill="rgb(246,182,48)" stroke="rgb(246,182,48)" stroke-width="1" opacity="0.9921568627450981" d="M 136.5 197 L 139.5 201 L 136.5 197 Z " /><path fill="rgb(246,182,48)" stroke="rgb(246,182,48)" stroke-width="1" opacity="0.9921568627450981" d="M 200.5 198 L 209.5 208 L 200.5 198 Z " /><path fill="rgb(246,182,48)" stroke="rgb(246,182,48)" stroke-width="1" opacity="0.9921568627450981" d="M 311.5 198 L 302.5 208 L 311.5 198 Z " /><path fill="rgb(246,182,48)" stroke="rgb(246,182,48)" stroke-width="1" opacity="0.9921568627450981" d="M 352.5 198 L 350.5 201 L 352.5 198 Z " /><path fill="rgb(246,182,48)" stroke="rgb(246,182,48)" stroke-width="1" opacity="0.9921568627450981" d="M 331.5 201 L 330.5 203 L 331.5 201 Z " /><path fill="rgb(246,182,48)" stroke="rgb(246,182,48)" stroke-width="1" opacity="0.9921568627450981" d="M 140.5 202 L 146 206.5 L 144.5 206 L 140.5 202 Z " /><path fill="rgb(246,182,48)" stroke="rgb(246,182,48)" stroke-width="1" opacity="0.9921568627450981" d="M 369 203 L 371 203.5 L 366 207.5 L 369 203 Z " /><path fill="rgb(246,182,48)" stroke="rgb(246,182,48)" stroke-width="1" opacity="0.9921568627450981" d="M 327.5 207 L 326.5 209 L 327.5 207 Z " /><path fill="rgb(246,182,48)" stroke="rgb(246,182,48)" stroke-width="1" opacity="0.9921568627450981" d="M 346.5 208 L 345.5 210 L 346.5 208 Z " /><path fill="rgb(246,182,48)" stroke="rgb(246,182,48)" stroke-width="1" opacity="0.9921568627450981" d="M 147.5 209 L 148.5 211 L 147.5 209 Z " /><path fill="rgb(246,182,48)" stroke="rgb(246,182,48)" stroke-width="1" opacity="0.9921568627450981" d="M 212.5 209 L 213.5 211 L 212.5 209 Z " /><path fill="rgb(246,182,48)" stroke="rgb(246,182,48)" stroke-width="1" opacity="0.9921568627450981" d="M 299.5 209 L 298.5 211 L 299.5 209 Z " /><path fill="rgb(246,182,48)" stroke="rgb(246,182,48)" stroke-width="1" opacity="0.9921568627450981" d="M 364.5 209 L 362.5 212 L 364.5 209 Z " /><path fill="rgb(246,182,48)" stroke="rgb(246,182,48)" stroke-width="1" opacity="0.9921568627450981" d="M 325.5 210 L 324.5 212 L 325.5 210 Z " /><path fill="rgb(246,182,48)" stroke="rgb(246,182,48)" stroke-width="1" opacity="0.9921568627450981" d="M 218.5 213 L 219.5 215 L 218.5 213 Z " /><path fill="rgb(246,182,48)" stroke="rgb(246,182,48)" stroke-width="1" opacity="0.9921568627450981" d="M 293.5 213 L 292.5 215 L 293.5 213 Z " /><path fill="rgb(246,182,48)" stroke="rgb(246,182,48)" stroke-width="1" opacity="0.9921568627450981" d="M 343.5 213 L 342.5 215 L 343.5 213 Z " /><path fill="rgb(246,182,48)" stroke="rgb(246,182,48)" stroke-width="1" opacity="0.9921568627450981" d="M 358.5 214 L 356.5 217 L 358.5 214 Z " /><path fill="rgb(246,182,48)" stroke="rgb(246,182,48)" stroke-width="1" opacity="0.9921568627450981" d="M 321.5 215 L 316.5 221 L 321.5 215 Z " /><path fill="rgb(246,182,48)" stroke="rgb(246,182,48)" stroke-width="1" opacity="0.9921568627450981" d="M 341.5 216 L 340.5 218 L 341.5 216 Z " /><path fill="rgb(246,182,48)" stroke="rgb(246,182,48)" stroke-width="1" opacity="0.9921568627450981" d="M 160.5 220 L 161.5 222 L 160.5 220 Z " /><path fill="rgb(246,182,48)" stroke="rgb(246,182,48)" stroke-width="1" opacity="0.9921568627450981" d="M 338.5 220 L 337.5 222 L 338.5 220 Z " /><path fill="rgb(246,182,48)" stroke="rgb(246,182,48)" stroke-width="1" opacity="0.9921568627450981" d="M 351.5 220 L 350.5 222 L 351.5 220 Z " /><path fill="rgb(246,182,48)" stroke="rgb(246,182,48)" stroke-width="1" opacity="0.9921568627450981" d="M 163.5 222 L 164.5 224 L 163.5 222 Z " /><path fill="rgb(246,182,48)" stroke="rgb(246,182,48)" stroke-width="1" opacity="0.9921568627450981" d="M 314.5 222 L 308.5 229 L 314.5 222 Z " /><path fill="rgb(246,182,48)" stroke="rgb(246,182,48)" stroke-width="1" opacity="0.9921568627450981" d="M 245.5 223 L 248 223.5 L 245.5 224 L 245.5 223 Z " /><path fill="rgb(246,182,48)" stroke="rgb(246,182,48)" stroke-width="1" opacity="0.9921568627450981" d="M 264.5 223 L 268 223.5 L 264.5 224 L 264.5 223 Z " /><path fill="rgb(246,182,48)" stroke="rgb(246,182,48)" stroke-width="1" opacity="0.9921568627450981" d="M 346 223 L 348 223.5 L 346 224.5 L 346 223 Z " /><path fill="rgb(246,182,48)" stroke="rgb(246,182,48)" stroke-width="1" opacity="0.9921568627450981" d="M 335.5 224 L 332.5 228 L 335.5 224 Z " /><path fill="rgb(246,182,48)" stroke="rgb(246,182,48)" stroke-width="1" opacity="0.9921568627450981" d="M 167.5 225 L 168.5 227 L 167.5 225 Z " /><path fill="rgb(246,182,48)" stroke="rgb(246,182,48)" stroke-width="1" opacity="0.9921568627450981" d="M 341.5 227 L 340.5 229 L 339 228.5 L 341.5 227 Z " /><path fill="rgb(246,182,48)" stroke="rgb(246,182,48)" stroke-width="1" opacity="0.9921568627450981" d="M 173.5 229 L 174.5 231 L 173.5 229 Z " /><path fill="rgb(246,182,48)" stroke="rgb(246,182,48)" stroke-width="1" opacity="0.9921568627450981" d="M 305.5 230 L 303.5 233 L 305.5 230 Z " /><path fill="rgb(246,182,48)" stroke="rgb(246,182,48)" stroke-width="1" opacity="0.9921568627450981" d="M 329.5 231 L 325.5 238 L 325 235.5 L 329.5 231 Z " /><path fill="rgb(246,182,48)" stroke="rgb(246,182,48)" stroke-width="1" opacity="0.9921568627450981" d="M 301.5 233 L 299.5 236 L 301.5 233 Z " /><path fill="rgb(246,182,48)" stroke="rgb(246,182,48)" stroke-width="1" opacity="0.9921568627450981" d="M 182.5 234 L 183.5 236 L 182.5 234 Z " /><path fill="rgb(246,182,48)" stroke="rgb(246,182,48)" stroke-width="1" opacity="0.9921568627450981" d="M 297.5 236 L 296.5 238 L 297.5 236 Z " /><path fill="rgb(246,182,48)" stroke="rgb(246,182,48)" stroke-width="1" opacity="0.9921568627450981" d="M 323.5 237 L 324 239 L 321.5 240 L 323.5 237 Z " /><path fill="rgb(246,182,48)" stroke="rgb(246,182,48)" stroke-width="1" opacity="0.9921568627450981" d="M 294.5 238 L 293.5 240 L 294.5 238 Z " /><path fill="rgb(246,182,48)" stroke="rgb(246,182,48)" stroke-width="1" opacity="0.9921568627450981" d="M 291.5 240 L 290.5 242 L 291.5 240 Z " /><path fill="rgb(246,182,48)" stroke="rgb(246,182,48)" stroke-width="1" opacity="0.9921568627450981" d="M 288.5 242 L 286.5 245 L 288.5 242 Z " /><path fill="rgb(246,182,48)" stroke="rgb(246,182,48)" stroke-width="1" opacity="0.9921568627450981" d="M 284.5 245 L 283.5 247 L 284.5 245 Z " /><path fill="rgb(246,182,48)" stroke="rgb(246,182,48)" stroke-width="1" opacity="0.9921568627450981" d="M 281.5 247 L 280.5 249 L 281.5 247 Z " /><path fill="rgb(246,182,48)" stroke="rgb(246,182,48)" stroke-width="1" opacity="0.9921568627450981" d="M 309.5 248 L 308.5 250 L 309.5 248 Z " /><path fill="rgb(246,182,48)" stroke="rgb(246,182,48)" stroke-width="1" opacity="0.9921568627450981" d="M 278.5 249 L 274.5 254 L 278.5 249 Z " /><path fill="rgb(246,182,48)" stroke="rgb(246,182,48)" stroke-width="1" opacity="0.9921568627450981" d="M 306.5 250 L 305.5 252 L 306.5 250 Z " /><path fill="rgb(246,182,48)" stroke="rgb(246,182,48)" stroke-width="1" opacity="0.9921568627450981" d="M 303.5 252 L 302.5 254 L 303.5 252 Z " /><path fill="rgb(246,182,48)" stroke="rgb(246,182,48)" stroke-width="1" opacity="0.9921568627450981" d="M 300.5 254 L 298.5 257 L 289.5 263 L 291.5 260 L 300.5 254 Z " /><path fill="rgb(246,182,48)" stroke="rgb(246,182,48)" stroke-width="1" opacity="0.9921568627450981" d="M 288.5 265 L 289 272.5 L 288 272.5 L 288.5 265 Z " /><path fill="rgb(246,182,48)" stroke="rgb(246,182,48)" stroke-width="1" opacity="0.9921568627450981" d="M 272.5 275 L 273 279.5 L 272 279.5 L 272.5 275 Z " /><path fill="rgb(246,182,48)" stroke="rgb(246,182,48)" stroke-width="1" opacity="0.9921568627450981" d="M 273.5 285 L 274 287.5 L 273 287.5 L 273.5 285 Z " /><path fill="rgb(246,182,48)" stroke="rgb(246,182,48)" stroke-width="1" opacity="0.9921568627450981" d="M 274.5 292 L 275 294.5 L 274 294.5 L 274.5 292 Z " /><path fill="rgb(246,182,48)" stroke="rgb(246,182,48)" stroke-width="1" opacity="0.9921568627450981" d="M 291.5 293 L 292 295.5 L 291 295.5 L 291.5 293 Z " /><path fill="rgb(246,182,48)" stroke="rgb(246,182,48)" stroke-width="1" opacity="0.9921568627450981" d="M 290.5 340 L 292 342.5 L 290 341.5 L 290.5 340 Z " /><path fill="rgb(246,182,48)" stroke="rgb(246,182,48)" stroke-width="1" opacity="0.9921568627450981" d="M 309.5 341 L 310.5 343 L 309.5 341 Z " /><path fill="rgb(246,182,48)" stroke="rgb(246,182,48)" stroke-width="1" opacity="0.9921568627450981" d="M 186.5 347 L 184.5 350 L 186.5 347 Z " /><path fill="rgb(246,182,48)" stroke="rgb(246,182,48)" stroke-width="1" opacity="0.9921568627450981" d="M 181.5 352 L 179.5 355 L 181.5 352 Z " /><path fill="rgb(247,183,49)" stroke="rgb(247,183,49)" stroke-width="1" opacity="1" d="M 114.5 16 L 156.5 16 L 163 20.5 L 164 29.5 L 166 31.5 L 166 33.5 L 168 41.5 L 170 43.5 L 169.5 46 L 159.5 46 L 158 47.5 L 157 53 Q 154 54.3 155 50.5 L 153 47.5 L 153 45.5 L 150 39.5 L 150 37.5 L 149 32 L 122.5 32 L 122 34.5 L 117 47.5 L 117 49.5 L 114 60.5 L 114 62.5 L 113 65.5 L 113 67.5 L 112 76.5 L 112 78.5 L 113 80.5 L 112 81.5 L 112 93.5 L 113 98.5 L 112 100.5 L 116 120.5 L 115 122.5 L 118 128.5 L 118 130.5 L 119 135.5 L 124 145.5 Q 121.5 147 125 148.5 L 127 152.5 Q 124.5 154 128 155.5 Q 127.5 160 131 160.5 L 130.5 162 L 133 163.5 L 132.5 165 Q 135.5 164.1 134 168.5 L 136 168.5 L 141 179 L 144 180.5 L 144 183 Q 146.7 181.9 146 184.5 L 148.5 188 Q 149.8 185.8 151 188.5 L 155.5 195 L 159 197.5 L 161 200.5 L 173 219.5 L 185.5 234 L 191 238.5 L 189.5 238 L 182.5 234 L 181 234.5 Q 181.8 231.9 178.5 233 L 167.5 225 L 165 225 L 163.5 222 L 159 220 L 159 218 L 156 218 Q 157.1 215.3 154.5 216 L 153 213 L 151 213 Q 152.1 210.3 149.5 211 L 144 206.5 L 144.5 205 L 140 201.5 L 136.5 197 L 135 196.5 L 135.5 195 L 133 193.5 L 131.5 190 L 130 190.5 L 125 181 L 123 180.5 L 124 179.5 L 121 176.5 L 108 152.5 Q 110.5 151 107 149.5 L 107 145.5 L 103 138.5 L 103 136.5 L 103 133.5 L 100 127.5 L 100 125.5 L 99 121.5 L 99 119.5 L 97 108.5 L 97 106.5 L 96 103.5 L 97 99.5 L 96 97.5 L 97 95.5 L 96 94.5 L 96 83.5 L 97 74.5 L 98 60.5 L 100 55.5 L 100 53.5 Q 100.2 44.2 104 38.5 L 103.5 37 Q 106.5 37.9 105 33.5 L 111 18 L 114.5 16 Z " /><path fill="rgb(247,183,49)" stroke="rgb(247,183,49)" stroke-width="1" opacity="1" d="M 353.5 16 L 396.5 16 L 400 17 L 407 31.5 Q 404.5 33 408 34.5 L 410 46.5 L 412 48.5 L 414 66.5 L 416 72.5 L 415 74.5 L 416 77.5 L 415 84.5 L 416 85.5 L 416 93.5 L 416 95.5 L 415 97.5 L 416 100.5 L 415 101.5 L 413 122.5 L 410 134.5 L 407 140.5 Q 409.5 142 406 143.5 Q 406.6 149.1 403 150.5 L 403 152.5 L 398 162.5 Q 400.5 164 397 165.5 L 388 179.5 L 388.5 181 L 386 182.5 L 386 184.5 L 378.5 194 Q 376.3 193.3 377 195.5 L 370.5 203 Q 368.3 202.3 369 204.5 L 356 216.5 L 355.5 218 L 354 217.5 L 352.5 220 L 348.5 223 L 346 223 L 344.5 226 L 339 228 Q 340.1 230.7 337.5 230 L 324.5 238 L 324 236 L 330 231.5 Q 344.1 216.4 353 197 L 359 192.5 L 363 186 Q 365.7 187.1 365 184.5 L 376 171.5 L 375 170.5 L 378 167.5 L 381 160 Q 384 161.3 383 157.5 L 394 132.5 L 394 130.5 L 395 128.5 L 395 126.5 L 397 122.5 L 397 120.5 L 398 117.5 L 398 115.5 L 397 113.5 L 399 109.5 L 398 106.5 L 400 103.5 L 400 101.5 L 399 93.5 L 400 92.5 L 400 82.5 L 400 80.5 L 399 77.5 L 399 75.5 L 400 73.5 L 399 70.5 L 398 68.5 L 398 66.5 L 399 64.5 L 397 60.5 L 393 39.5 L 388.5 32 L 363.5 32 L 363 34.5 L 356.5 52 L 352.5 45 L 343 45 L 343 41.5 L 347 32.5 Q 347.3 24 350 19 Q 352.7 20.1 352 17.5 L 353.5 16 Z " /><path fill="rgb(247,183,49)" stroke="rgb(247,183,49)" stroke-width="1" opacity="1" d="M 312 45 L 339 45 L 339 55.5 L 343 64.5 L 349 87.5 L 349 93.5 L 351 101.5 L 351 118.5 L 352 120.5 L 351 121.5 L 351 138.5 L 350 139.5 L 349 152.5 L 344 172.5 L 332 200.5 L 316 222 L 274 253.5 L 272 257.5 L 272 279.5 L 278 311.5 Q 283 329.5 292 343.5 L 220 344 Q 230.1 325.3 236 301.5 L 239 284.5 L 240 260.5 Q 238.4 253.6 233.5 250 L 205.5 231 L 188 213.5 L 175 192.5 L 165 164.5 L 160 135.5 L 160 103.5 L 161 102.5 L 161 95.5 L 164 79.5 L 169 62.5 L 170.5 61 L 300.5 61 L 310 53.5 L 312 45 Z M 245 80 Q 223 84 210 96 Q 190 111 184 141 L 184 164 L 185 169 Q 190 186 200 199 Q 216 218 246 224 L 268 224 L 273 223 Q 290 218 303 208 Q 322 192 328 163 L 328 141 L 327 136 Q 322 118 312 106 Q 299 91 280 83 L 268 80 L 245 80 Z " /><path fill="rgb(247,183,49)" stroke="rgb(247,183,49)" stroke-width="1" opacity="1" d="M 253.5 113 L 259.5 113 L 263 115 L 264 117.5 L 264 189.5 L 261.5 192 L 251.5 192 L 249 189.5 L 249 133 L 240.5 137 L 237.5 137 L 232 128.5 L 232 124.5 L 253.5 113 Z " /><path fill="rgb(247,183,49)" stroke="rgb(247,183,49)" stroke-width="1" opacity="1" d="M 218.5 259 L 219.5 261 L 218.5 259 Z " /><path fill="rgb(112,133,158)" stroke="rgb(112,133,158)" stroke-width="1" opacity="0.996078431372549" d="M 196.5 344 L 316.5 344 Q 326.8 346.8 332 354.5 L 336 363.5 L 336 376.5 L 337.5 378 L 346 383.5 L 347.5 386 Q 350.1 385.2 349 388.5 L 352 394.5 L 352 477.5 Q 349.5 486 343.5 491 L 333.5 496 L 178.5 496 Q 170 493.5 165 487.5 L 160 477.5 L 160 394.5 L 163 386 L 166 384.5 Q 165.3 382.3 167.5 383 L 176 376.5 Q 174 355 186.5 348 L 196.5 344 Z " /></svg>